<svg width="194" height="138" viewBox="0 0 194 138" fill="none" xmlns="http://www.w3.org/2000/svg">
<path fill-rule="evenodd" clip-rule="evenodd" d="M1.96284 14.6359C0.910688 17.4003 0.40506 21.2873 0.500709 25.9426C0.596613 30.6101 1.29809 36.0981 2.69787 42.0916C5.49742 54.0786 11.0995 68.1275 20.2919 81.7297C38.6901 108.954 71.4622 134.371 124.853 137.89L124.883 137.892L124.913 137.891C151.738 137.51 172.921 130.254 184.176 119.279C189.818 113.777 192.986 107.315 193.054 100.319C193.122 93.3293 190.093 85.9256 183.576 78.5335C167.951 60.8106 149.206 60.1146 130.318 59.4133C129.477 59.3821 128.635 59.3509 127.794 59.3181C116.104 58.863 104.365 58.1237 93.1034 53.2008C93.9899 52.4249 94.6747 51.4837 95.0937 50.3759C96.1981 47.456 95.1521 44.1817 92.8524 41.3114C90.5404 38.4259 86.8761 35.8219 82.421 34.1368C77.966 32.4518 73.4956 31.9789 69.8527 32.6121C69.3224 32.7043 68.8065 32.8207 68.3087 32.9615C51.5778 13.2798 37.4008 3.32384 26.2475 0.790906C20.3864 -0.540154 15.3323 0.174114 11.2134 2.63987C7.10513 5.09927 4.01298 9.24949 1.96284 14.6359ZM66.7897 33.4918C50.2894 14.1816 36.5068 4.65901 25.9153 2.25366C20.3629 0.992688 15.7163 1.69248 11.9839 3.92688C8.24081 6.16764 5.33091 10.0037 3.36473 15.1695C2.40871 17.6813 1.90671 21.3525 2.00039 25.9118C2.09382 30.459 2.77866 35.8421 4.15856 41.7505C6.91838 53.5674 12.4493 67.4459 21.5347 80.8897C39.6888 107.753 72.0435 132.898 124.922 136.391C151.543 136.007 172.266 128.797 183.129 118.205C188.548 112.921 191.491 106.821 191.554 100.305C191.617 93.7819 188.796 86.7223 182.451 79.5254C167.26 62.2949 149.122 61.6172 130.15 60.9084L130.144 60.9082C129.343 60.8783 128.54 60.8483 127.736 60.8169C115.728 60.3495 103.47 59.5818 91.6843 54.2101C90.4551 54.9208 88.9991 55.4128 87.4146 55.6882C83.7717 56.3214 79.3012 55.8486 74.8462 54.1635C70.3912 52.4785 66.7268 49.8745 64.4149 46.9889C62.1151 44.1186 61.0692 40.8444 62.1736 37.9244C62.9449 35.8851 64.617 34.4104 66.7897 33.4918ZM89.972 53.3951C89.1413 53.7546 88.1984 54.0295 87.1577 54.2104C83.8223 54.7902 79.6251 54.3673 75.3769 52.7605C71.1287 51.1537 67.7023 48.693 65.5855 46.051C63.4565 43.3939 62.7358 40.6779 63.5766 38.4551C64.2093 36.7824 65.6895 35.4855 67.8129 34.6976C68.3639 35.3516 68.918 36.0164 69.475 36.6921C76.019 44.6311 82.9038 49.8856 89.972 53.3951ZM91.5694 52.5027C84.3349 49.077 77.3088 43.8375 70.6324 35.738C70.2145 35.231 69.7982 34.73 69.3834 34.235C69.6198 34.1814 69.8619 34.133 70.1096 34.09C73.4449 33.5102 77.6422 33.933 81.8904 35.5398C86.1385 37.1466 89.565 39.6074 91.6818 42.2493C93.8107 44.9065 94.5314 47.6224 93.6907 49.8453C93.2963 50.8878 92.5728 51.7843 91.5694 52.5027Z" fill="white"/>
</svg>
